<svg id="Group_10" data-name="Group 10" xmlns="http://www.w3.org/2000/svg" xmlns:xlink="http://www.w3.org/1999/xlink" width="116.745" height="37" viewBox="0 0 116.745 37">
  <defs>
    <clipPath id="clip-path">
      <rect id="Rectangle_1" data-name="Rectangle 1" width="37" height="37" fill="#fff"/>
    </clipPath>
  </defs>
  <g id="Group_9" data-name="Group 9" clip-path="url(#clip-path)">
    <path id="Path_1" data-name="Path 1" d="M23.777,4.572a5.331,5.331,0,0,0-9.584-2.383.627.627,0,1,0,1.012.74,4.077,4.077,0,0,1,7.329,1.82.628.628,0,0,0,.62.539.671.671,0,0,0,.089-.006A.627.627,0,0,0,23.777,4.572Z" fill="#1982c4"/>
    <path id="Path_2" data-name="Path 2" d="M32.834,11.592,30.953,8.457a.626.626,0,0,0-.538-.3h-1.8a.627.627,0,1,0,0,1.254H30.06l1.129,1.881H5.811L6.939,9.406H7.6a.627.627,0,0,0,0-1.254H6.584a.626.626,0,0,0-.538.3L4.165,11.592a.627.627,0,0,0,.538.95H32.3a.627.627,0,0,0,.538-.95Z" fill="#1982c4"/>
    <path id="Path_3" data-name="Path 3" d="M29.708,5.81a.626.626,0,0,0-.39-.28l-8.549-2A.627.627,0,0,0,20.016,4l-.645,2.756a.627.627,0,0,0,1.221.285l.5-2.145,7.327,1.714L27.27,11.531a.626.626,0,0,0,.468.753.635.635,0,0,0,.144.017.626.626,0,0,0,.61-.484l1.294-5.533A.625.625,0,0,0,29.708,5.81Z"/>
    <path id="Path_4" data-name="Path 4" d="M18.831,7.293,18.26,2.46a.627.627,0,0,0-.7-.549L7.074,3.15a.627.627,0,0,0-.549.7l.953,8.061a.627.627,0,0,0,.622.554.7.7,0,0,0,.075,0,.628.628,0,0,0,.549-.7L7.845,4.322l9.243-1.092.5,4.21a.627.627,0,0,0,1.246-.147Z" fill="#086375"/>
    <path id="Path_5" data-name="Path 5" d="M23.791,11.677,22.546,6.5a.627.627,0,0,0-.756-.463l-10.1,2.43a.627.627,0,0,0-.463.756l.622,2.587a.627.627,0,1,0,1.219-.293L12.59,9.54,21.473,7.4l1.1,4.566a.627.627,0,0,0,1.22-.294Z" fill="#3c1642"/>
    <path id="Path_6" data-name="Path 6" d="M32.923,11.883a.627.627,0,0,0-.626-.595H4.7a.627.627,0,0,0-.627.595L2.823,36.341A.627.627,0,0,0,3.449,37h30.1a.627.627,0,0,0,.627-.659ZM4.109,35.746l1.19-23.2H31.7l1.19,23.2Z" fill="#1982c4"/>
    <path id="Path_7" data-name="Path 7" d="M23.2,13.8a1.881,1.881,0,1,0,1.881,1.881A1.883,1.883,0,0,0,23.2,13.8Zm0,2.509a.627.627,0,1,1,.627-.627A.628.628,0,0,1,23.2,16.305Z" fill="#affc41"/>
    <path id="Path_8" data-name="Path 8" d="M13.8,13.8a1.881,1.881,0,1,0,1.881,1.881A1.883,1.883,0,0,0,13.8,13.8Zm0,2.509a.627.627,0,1,1,.627-.627A.628.628,0,0,1,13.8,16.305Z" fill="#affc41"/>
    <path id="Path_9" data-name="Path 9" d="M23.2,15.678h-.048a.627.627,0,0,0-.627.627.62.62,0,0,0,.048.242v3.207a4.076,4.076,0,0,1-8.153,0V16.305a.627.627,0,1,0-1.254,0v3.449a5.33,5.33,0,0,0,10.661,0V16.305A.627.627,0,0,0,23.2,15.678Z" fill="#affc41"/>
  </g>
  <path id="Path_10" data-name="Path 10" d="M51.516,14.616a1.161,1.161,0,0,0-.432-.936,4.226,4.226,0,0,0-1.062-.648q-.63-.306-1.386-.612a8.207,8.207,0,0,1-1.386-.774,4.24,4.24,0,0,1-1.062-1.152,3.328,3.328,0,0,1-.414-1.746,3.768,3.768,0,0,1,.306-1.584,3.011,3.011,0,0,1,.864-1.134,3.844,3.844,0,0,1,1.35-.666,6.425,6.425,0,0,1,1.728-.216,10.359,10.359,0,0,1,2.07.2,5.111,5.111,0,0,1,1.6.54l-.774,2.07a4.174,4.174,0,0,0-1.188-.45,6.479,6.479,0,0,0-1.71-.216,2.229,2.229,0,0,0-1.332.342,1.094,1.094,0,0,0-.45.918,1.144,1.144,0,0,0,.414.9,5.208,5.208,0,0,0,1.062.666q.648.306,1.386.63a6.816,6.816,0,0,1,1.386.792,3.69,3.69,0,0,1,1.062,1.134,3.018,3.018,0,0,1,.432,1.674,4.12,4.12,0,0,1-.342,1.746A3.187,3.187,0,0,1,52.7,17.3a3.864,3.864,0,0,1-1.458.72,7.013,7.013,0,0,1-1.872.234A10.021,10.021,0,0,1,47,18a7.268,7.268,0,0,1-1.512-.5l.792-2.106a5.251,5.251,0,0,0,.5.234,7.271,7.271,0,0,0,.72.234,8.386,8.386,0,0,0,.828.18,5.8,5.8,0,0,0,.918.072,3.184,3.184,0,0,0,1.674-.36A1.255,1.255,0,0,0,51.516,14.616ZM61.079,18V12.888a3.091,3.091,0,0,0-.306-1.584,1.214,1.214,0,0,0-1.116-.486,1.694,1.694,0,0,0-1.1.414,1.9,1.9,0,0,0-.648,1.026V18h-2.34V5.4h2.34v4.608h.072a3.253,3.253,0,0,1,1.062-.918,3.336,3.336,0,0,1,1.6-.342,3.7,3.7,0,0,1,1.206.18,1.9,1.9,0,0,1,.864.594,2.555,2.555,0,0,1,.522,1.134,7.161,7.161,0,0,1,.18,1.746V18Zm3.869-4.5a5.031,5.031,0,0,1,1.116-3.51A3.994,3.994,0,0,1,69.2,8.748a4.7,4.7,0,0,1,1.872.342,3.455,3.455,0,0,1,1.314.972,3.931,3.931,0,0,1,.774,1.494,6.62,6.62,0,0,1,.27,1.944,5.1,5.1,0,0,1-1.116,3.528A3.967,3.967,0,0,1,69.2,18.252a4.7,4.7,0,0,1-1.872-.342,3.71,3.71,0,0,1-1.332-.954,4.321,4.321,0,0,1-.792-1.512A7.061,7.061,0,0,1,64.948,13.5Zm2.412,0a5.242,5.242,0,0,0,.108,1.1,3.061,3.061,0,0,0,.324.882,1.663,1.663,0,0,0,.558.594,1.728,1.728,0,0,0,.846.2,1.538,1.538,0,0,0,1.368-.666,3.841,3.841,0,0,0,.45-2.106,4.156,4.156,0,0,0-.414-2,1.462,1.462,0,0,0-1.4-.774,1.592,1.592,0,0,0-1.35.648A3.6,3.6,0,0,0,67.359,13.5ZM75.048,9h1.71l.27,1.08H77.1a3.006,3.006,0,0,1,1.1-1.008,3.471,3.471,0,0,1,1.566-.324A3.026,3.026,0,0,1,82.3,9.828a5.541,5.541,0,0,1,.846,3.438,7.524,7.524,0,0,1-.27,2.088,4.312,4.312,0,0,1-.81,1.566,3.406,3.406,0,0,1-1.3.99,4.2,4.2,0,0,1-1.746.342,3.88,3.88,0,0,1-.918-.09,2.866,2.866,0,0,1-.72-.252V21.6h-2.34Zm4.014,1.728a1.6,1.6,0,0,0-1.08.342,2.277,2.277,0,0,0-.594,1.026V15.84a2.48,2.48,0,0,0,.54.324,2.424,2.424,0,0,0,.792.108,1.739,1.739,0,0,0,1.512-.7,4.221,4.221,0,0,0,.5-2.358,3.536,3.536,0,0,0-.4-1.836A1.384,1.384,0,0,0,79.062,10.728ZM84.768,9h1.71l.27,1.08h.072a3.006,3.006,0,0,1,1.1-1.008,3.471,3.471,0,0,1,1.566-.324,3.026,3.026,0,0,1,2.538,1.08,5.542,5.542,0,0,1,.846,3.438,7.524,7.524,0,0,1-.27,2.088,4.312,4.312,0,0,1-.81,1.566,3.406,3.406,0,0,1-1.3.99,4.2,4.2,0,0,1-1.746.342,3.88,3.88,0,0,1-.918-.09,2.865,2.865,0,0,1-.72-.252V21.6h-2.34Zm4.014,1.728a1.6,1.6,0,0,0-1.08.342,2.277,2.277,0,0,0-.594,1.026V15.84a2.48,2.48,0,0,0,.54.324,2.424,2.424,0,0,0,.792.108,1.739,1.739,0,0,0,1.512-.7,4.221,4.221,0,0,0,.5-2.358,3.536,3.536,0,0,0-.4-1.836A1.384,1.384,0,0,0,88.782,10.728ZM94.687,9h2.34v9h-2.34Zm-.342-2.538a1.171,1.171,0,0,1,.378-.882A1.5,1.5,0,0,1,95.8,5.2a1.565,1.565,0,0,1,1.1.378,1.116,1.116,0,0,1,0,1.764,1.669,1.669,0,0,1-1.1.342,1.6,1.6,0,0,1-1.08-.342A1.171,1.171,0,0,1,94.345,6.462ZM104.831,18V12.888a2.947,2.947,0,0,0-.324-1.584,1.155,1.155,0,0,0-1.062-.486,1.7,1.7,0,0,0-1.134.4,2.12,2.12,0,0,0-.648.954V18h-2.34V9h1.854l.27,1.188h.072a3.88,3.88,0,0,1,1.1-1.008,3.255,3.255,0,0,1,1.764-.432,3.634,3.634,0,0,1,1.188.18,2.022,2.022,0,0,1,.882.594,2.7,2.7,0,0,1,.54,1.134,7.161,7.161,0,0,1,.18,1.746V18Zm11.914,0a3.609,3.609,0,0,1-1.062,2.88,4.342,4.342,0,0,1-2.97.936,9.245,9.245,0,0,1-2.052-.18,5.149,5.149,0,0,1-1.116-.378l.486-1.854q.414.162.954.324a4.97,4.97,0,0,0,1.368.162,2.042,2.042,0,0,0,1.656-.54,2.192,2.192,0,0,0,.45-1.476V17.3h-.072a2.614,2.614,0,0,1-2.232.846,3.141,3.141,0,0,1-2.61-1.08,5.481,5.481,0,0,1-.846-3.384,5.194,5.194,0,0,1,1.152-3.654A4.342,4.342,0,0,1,113.2,8.784a11.667,11.667,0,0,1,2.052.162,8.641,8.641,0,0,1,1.494.378Zm-3.96-1.728a1.571,1.571,0,0,0,1.044-.306,1.893,1.893,0,0,0,.576-.918V11a3.6,3.6,0,0,0-1.386-.234,1.645,1.645,0,0,0-1.4.684,3.586,3.586,0,0,0-.5,2.142,3.772,3.772,0,0,0,.432,2A1.384,1.384,0,0,0,112.785,16.272Z" fill="#3c1642"/>
  <path id="Path_11" data-name="Path 11" d="M45.486,33.8l5.328-7.452.936-.756H45.486V23.4h8.73v2.2L48.852,33.12l-.918.684h6.282V36h-8.73Zm9.462-4.1a7.462,7.462,0,0,1,1.386-4.842,4.8,4.8,0,0,1,3.96-1.71,5.549,5.549,0,0,1,2.358.468,4.442,4.442,0,0,1,1.674,1.332,5.822,5.822,0,0,1,.99,2.07A10.333,10.333,0,0,1,65.64,29.7a7.47,7.47,0,0,1-1.4,4.86,4.806,4.806,0,0,1-3.942,1.692,5.6,5.6,0,0,1-2.376-.468,4.442,4.442,0,0,1-1.674-1.332,6.008,6.008,0,0,1-.972-2.07A10.333,10.333,0,0,1,54.948,29.7Zm2.592,0a9,9,0,0,0,.162,1.764,4.7,4.7,0,0,0,.486,1.368,2.594,2.594,0,0,0,.864.9,2.308,2.308,0,0,0,1.242.324,2.34,2.34,0,0,0,2.034-1.026,5.933,5.933,0,0,0,.72-3.33,8.532,8.532,0,0,0-.162-1.71,4.6,4.6,0,0,0-.468-1.386,2.411,2.411,0,0,0-.846-.918,2.282,2.282,0,0,0-1.278-.342,2.316,2.316,0,0,0-2.034,1.062A5.9,5.9,0,0,0,57.54,29.7Zm12.995-.27-.99-1.98h-.09l.288,1.98V36H67.4V23.31h1.8l4.77,6.714.954,1.926h.09l-.288-1.926V23.4h2.34V36.09h-1.8Zm8.7-6.03H86.7v2.2h-5V28.53h4.554v2.2H81.7V33.8h5.094V36h-7.56Z" fill="#086375"/>
</svg>
